HIERARCHY
ROOT Hips
{
    OFFSET   0.000000   0.000000   0.000000
    CHANNELS 6 Xposition Yposition Zposition Zrotation Xrotation Yrotation
    JOINT Chest
    {
        OFFSET   0.000000   8.007230   0.000000
        CHANNELS 3 Zrotation Xrotation Yrotation
        JOINT Chest2
        {
            OFFSET   0.000000  22.077100   0.000000
            CHANNELS 3 Zrotation Xrotation Yrotation
            JOINT Neck
            {
                OFFSET   0.000000  23.254800  -0.000021
                CHANNELS 3 Zrotation Xrotation Yrotation
                JOINT Head
                {
                    OFFSET   0.000000  14.370000   1.956610
                    CHANNELS 3 Zrotation Xrotation Yrotation
                    End Site
                    {
                        OFFSET   0.000000  19.566000   0.000000
                    }
                }
            }
            JOINT LeftCollar
            {
                OFFSET   3.911900  19.017000  -0.467063
                CHANNELS 3 Zrotation Xrotation Yrotation
                JOINT LeftShoulder
                {
                    OFFSET  10.383700   0.000000   0.000000
                    CHANNELS 3 Zrotation Xrotation Yrotation
                    JOINT LeftElbow
                    {
                        OFFSET  26.662100   0.001529   0.000325
                        CHANNELS 3 Zrotation Xrotation Yrotation
                        JOINT LeftWrist
                        {
                            OFFSET  28.869000  -0.000011  -0.000096
                            CHANNELS 3 Zrotation Xrotation Yrotation
                            JOINT LeftFinger0
                            {
                                OFFSET   2.044650  -2.323460   3.252850
                                CHANNELS 3 Zrotation Xrotation Yrotation
                                JOINT LeftFinger01
                                {
                                    OFFSET   3.088130   0.000000   0.000000
                                    CHANNELS 3 Zrotation Xrotation Yrotation
                                    JOINT LeftFinger02
                                    {
                                        OFFSET   2.639460   0.000000   0.000000
                                        CHANNELS 3 Zrotation Xrotation Yrotation
                                        End Site
                                        {
                                            OFFSET   2.582190   0.000000   0.000000
                                        }
                                    }
                                }
                            }
                            JOINT LeftFinger1
                            {
                                OFFSET   8.364480   0.000000   3.252850
                                CHANNELS 3 Zrotation Xrotation Yrotation
                                JOINT LeftFinger11
                                {
                                    OFFSET   4.646930   0.000000   0.000000
                                    CHANNELS 3 Zrotation Xrotation Yrotation
                                    JOINT LeftFinger12
                                    {
                                        OFFSET   2.323460   0.000000   0.000000
                                        CHANNELS 3 Zrotation Xrotation Yrotation
                                        End Site
                                        {
                                            OFFSET   2.273050   0.000000   0.000000
                                        }
                                    }
                                }
                            }
                            JOINT LeftFinger2
                            {
                                OFFSET   8.364480   0.000016   1.078090
                                CHANNELS 3 Zrotation Xrotation Yrotation
                                JOINT LeftFinger21
                                {
                                    OFFSET   5.111620   0.000000   0.000000
                                    CHANNELS 3 Zrotation Xrotation Yrotation
                                    JOINT LeftFinger22
                                    {
                                        OFFSET   2.788160   0.000017   0.000000
                                        CHANNELS 3 Zrotation Xrotation Yrotation
                                        End Site
                                        {
                                            OFFSET   2.727660   0.000000   0.000000
                                        }
                                    }
                                }
                            }
                            JOINT LeftFinger3
                            {
                                OFFSET   7.899780   0.000015  -1.078090
                                CHANNELS 3 Zrotation Xrotation Yrotation
                                JOINT LeftFinger31
                                {
                                    OFFSET   4.646920   0.000000   0.000000
                                    CHANNELS 3 Zrotation Xrotation Yrotation
                                    JOINT LeftFinger32
                                    {
                                        OFFSET   2.323470   0.000000   0.000000
                                        CHANNELS 3 Zrotation Xrotation Yrotation
                                        End Site
                                        {
                                            OFFSET   2.273050   0.000000   0.000000
                                        }
                                    }
                                }
                            }
                            JOINT LeftFinger4
                            {
                                OFFSET   7.435090   0.000000  -3.252850
                                CHANNELS 3 Zrotation Xrotation Yrotation
                                JOINT LeftFinger41
                                {
                                    OFFSET   3.717550   0.000000   0.000000
                                    CHANNELS 3 Zrotation Xrotation Yrotation
                                    JOINT LeftFinger42
                                    {
                                        OFFSET   1.858760   0.000000   0.000000
                                        CHANNELS 3 Zrotation Xrotation Yrotation
                                        End Site
                                        {
                                            OFFSET   1.818440   0.000000   0.000000
                                        }
                                    }
                                }
                            }
                        }
                    }
                }
            }
            JOINT RightCollar
            {
                OFFSET  -3.911900  19.017000  -0.467062
                CHANNELS 3 Zrotation Xrotation Yrotation
                JOINT RightShoulder
                {
                    OFFSET -10.383700   0.000015   0.000000
                    CHANNELS 3 Zrotation Xrotation Yrotation
                    JOINT RightElbow
                    {
                        OFFSET -26.662100   0.001341   0.000385
                        CHANNELS 3 Zrotation Xrotation Yrotation
                        JOINT RightWrist
                        {
                            OFFSET -28.869000   0.000025  -0.000080
                            CHANNELS 3 Zrotation Xrotation Yrotation
                            JOINT RightFinger0
                            {
                                OFFSET  -2.044650  -2.323490   3.252850
                                CHANNELS 3 Zrotation Xrotation Yrotation
                                JOINT RightFinger01
                                {
                                    OFFSET  -3.088130   0.000000   0.000000
                                    CHANNELS 3 Zrotation Xrotation Yrotation
                                    JOINT RightFinger02
                                    {
                                        OFFSET  -2.639460   0.000000   0.000000
                                        CHANNELS 3 Zrotation Xrotation Yrotation
                                        End Site
                                        {
                                            OFFSET  -2.582190   0.000000   0.000000
                                        }
                                    }
                                }
                            }
                            JOINT RightFinger1
                            {
                                OFFSET  -8.364480   0.000000   3.252850
                                CHANNELS 3 Zrotation Xrotation Yrotation
                                JOINT RightFinger11
                                {
                                    OFFSET  -4.646930   0.000000   0.000000
                                    CHANNELS 3 Zrotation Xrotation Yrotation
                                    JOINT RightFinger12
                                    {
                                        OFFSET  -2.323470   0.000000   0.000000
                                        CHANNELS 3 Zrotation Xrotation Yrotation
                                        End Site
                                        {
                                            OFFSET  -2.273050   0.000000   0.000000
                                        }
                                    }
                                }
                            }
                            JOINT RightFinger2
                            {
                                OFFSET  -8.364480   0.000000   1.078090
                                CHANNELS 3 Zrotation Xrotation Yrotation
                                JOINT RightFinger21
                                {
                                    OFFSET  -5.111610   0.000000   0.000000
                                    CHANNELS 3 Zrotation Xrotation Yrotation
                                    JOINT RightFinger22
                                    {
                                        OFFSET  -2.788160   0.000000   0.000000
                                        CHANNELS 3 Zrotation Xrotation Yrotation
                                        End Site
                                        {
                                            OFFSET  -2.727660   0.000000   0.000000
                                        }
                                    }
                                }
                            }
                            JOINT RightFinger3
                            {
                                OFFSET  -7.899780   0.000000  -1.078090
                                CHANNELS 3 Zrotation Xrotation Yrotation
                                JOINT RightFinger31
                                {
                                    OFFSET  -4.646920   0.000000   0.000000
                                    CHANNELS 3 Zrotation Xrotation Yrotation
                                    JOINT RightFinger32
                                    {
                                        OFFSET  -2.323470   0.000000   0.000000
                                        CHANNELS 3 Zrotation Xrotation Yrotation
                                        End Site
                                        {
                                            OFFSET  -2.273050   0.000000   0.000000
                                        }
                                    }
                                }
                            }
                            JOINT RightFinger4
                            {
                                OFFSET  -7.435090   0.000000  -3.252850
                                CHANNELS 3 Zrotation Xrotation Yrotation
                                JOINT RightFinger41
                                {
                                    OFFSET  -3.717550   0.000000   0.000000
                                    CHANNELS 3 Zrotation Xrotation Yrotation
                                    JOINT RightFinger42
                                    {
                                        OFFSET  -1.858770   0.000000   0.000000
                                        CHANNELS 3 Zrotation Xrotation Yrotation
                                        End Site
                                        {
                                            OFFSET  -1.818440   0.000000   0.000000
                                        }
                                    }
                                }
                            }
                        }
                    }
                }
            }
        }
    }
    JOINT LeftHip
    {
        OFFSET   9.783010   0.000000   0.000000
        CHANNELS 3 Zrotation Xrotation Yrotation
        JOINT LeftKnee
        {
            OFFSET   0.000070 -41.789100   0.000028
            CHANNELS 3 Zrotation Xrotation Yrotation
            JOINT LeftAnkle
            {
                OFFSET   0.000087 -41.133200  -0.000100
                CHANNELS 3 Zrotation Xrotation Yrotation
                JOINT LeftToe
                {
                    OFFSET   0.000000  -6.358960  14.674500
                    CHANNELS 3 Zrotation Xrotation Yrotation
                    End Site
                    {
                        OFFSET   0.000000   0.000000   3.913200
                    }
                }
            }
        }
    }
    JOINT RightHip
    {
        OFFSET  -9.783020   0.000000   0.000000
        CHANNELS 3 Zrotation Xrotation Yrotation
        JOINT RightKnee
        {
            OFFSET   0.000044 -41.789100  -0.000870
            CHANNELS 3 Zrotation Xrotation Yrotation
            JOINT RightAnkle
            {
                OFFSET  -0.000090 -41.133200  -0.000245
                CHANNELS 3 Zrotation Xrotation Yrotation
                JOINT RightToe
                {
                    OFFSET   0.000000  -6.358960  14.674500
                    CHANNELS 3 Zrotation Xrotation Yrotation
                    End Site
                    {
                        OFFSET   0.000000   0.000000   3.913200
                    }
                }
            }
        }
    }
}
MOTION
Frames: 6
Frame Time:   0.016667
  0.726278  89.447100   1.315340  -0.496498  -3.420930   0.806182   0.974943   4.429850  -1.457660   2.072270   8.832650  -3.004430  -1.595050  -0.955790  -0.028909  -2.616630  -1.933530   6.923920  -7.407190  -0.095413  11.186000 -77.935700  12.582800   1.989730  -1.723180  -1.128300 -20.360700  10.148500 -10.052300  -1.202240  38.770100  32.648800 -50.975400 -33.907400   0.006271   0.005345 -11.955200   0.006325   0.003266 -36.422500  -3.651730   4.924750 -29.928500   0.003278   0.001832 -20.959600  -0.007480   0.011302 -34.045000  -3.612410   5.338230 -51.319500   0.000291  -0.005331 -34.178800  -0.008384   0.007088 -28.345500  -4.985410   9.147100 -40.066400  -0.004109   0.009758 -26.684200  -0.011597   0.006855 -32.677500  -7.570580  11.613100 -50.172100   0.000251   0.008090 -33.414600  -0.001353   0.011732   9.018390   3.211980   8.677660  69.304300   2.598310  -0.127683   4.414640  -5.747060  18.791300 -20.624100  -7.799490   4.022760 -44.354100  42.667200  85.430600  27.138600  -0.006545  -0.001921   8.569310  -0.000157  -0.009159  37.937500  -0.230275  -0.295409  31.040300  -0.000715   0.005553  21.737300   0.004724   0.004618  32.283800  -3.541610  -5.584590  48.681400   0.013862  -0.002554  32.428500   0.006392  -0.002655  31.218100  -5.083050  -8.315330  47.394100   0.004691  -0.004960  31.556400  -0.000634  -0.002932  42.595900  -6.616850  -7.158210  64.515500  -0.005080   0.002865  42.967300   0.008886  -0.007060   2.502810   5.628700  -1.400920   0.624043   0.911744  10.176900  -3.936360  -3.155550  -1.542570  -0.000000   0.000000   0.000000  -0.596141   7.545920  -6.452730   1.098990   0.349876 -13.424400  -0.210365  -3.793170  -0.666611  -0.000000   0.000000  -0.000000
  0.726384  89.447100   1.300410  -0.495414  -3.435370   0.823387   0.974538   4.439770  -1.455410   2.071580   8.852550  -3.000100  -1.595220  -0.962338  -0.028887  -2.616220  -1.946820   6.923890  -7.407200  -0.095425  11.186200 -77.938200  12.595900   1.974940  -1.726330  -1.137040 -20.356200  10.144700 -10.049600  -1.209910  38.782000  32.668900 -51.015500 -33.907400   0.006269   0.005319 -11.955100   0.006322   0.003253 -36.429400  -3.651730   4.924750 -29.934900   0.003270   0.001803 -20.959600  -0.007476   0.011294 -34.059000  -3.612440   5.334400 -51.340400   0.000296  -0.005354 -34.192700  -0.008374   0.007074 -28.346000  -4.985060   9.147150 -40.097400  -0.004116   0.009745 -26.704800  -0.011593   0.006844 -32.693400  -7.571120  11.598600 -50.195400   0.000264   0.008062 -33.430100  -0.001338   0.011731   9.012990   3.220710   8.677730  69.291200   2.618840  -0.111630   4.416460  -5.764460  18.791600 -20.584800  -7.782780   4.035250 -44.386700  42.675600  85.449800  27.106100  -0.006546  -0.001896   8.553060  -0.000157  -0.009156  37.949600  -0.224213  -0.287502  31.050100  -0.000725   0.005546  21.737100   0.004722   0.004612  32.284900  -3.535100  -5.574430  48.681000   0.013861  -0.002535  32.428800   0.006391  -0.002637  31.218200  -5.083020  -8.315370  47.392400   0.004680  -0.004951  31.556500  -0.000633  -0.002924  42.586100  -6.616770  -7.158230  64.500800  -0.005073   0.002837  42.957500   0.008900  -0.007053   2.502320   5.630140  -1.401000   0.624507   0.908939  10.168800  -3.940270  -3.143450  -1.554310   0.000000   0.000000   0.000000  -0.605535   7.539590  -6.440780   1.109810   0.355518 -13.458200  -0.210221  -3.790710  -0.657871  -0.000000   0.000000   0.000000
  0.726490  89.446900   1.275980  -0.493339  -3.459520   0.854528   0.972773   4.455680  -1.451740   2.068240   8.884500  -2.992970  -1.595390  -0.972735  -0.028846  -2.615370  -1.967870   6.923420  -7.407200  -0.095437  11.186300 -77.944000  12.618300   1.952070  -1.731280  -1.150510 -20.351800  10.136600 -10.044200  -1.226620  38.801800  32.703300 -51.076500 -33.907300   0.006261   0.005264 -11.955000   0.006305   0.003228 -36.439300  -3.651730   4.924740 -29.942300   0.003249   0.001747 -20.959600  -0.007465   0.011272 -34.078500  -3.612500   5.329190 -51.369700   0.000307  -0.005412 -34.212200  -0.008348   0.007036 -28.346800  -4.984420   9.147230 -40.129500  -0.004133   0.009713 -26.726200  -0.011584   0.006814 -32.709200  -7.571710  11.584100 -50.218600   0.000290   0.007996 -33.445600  -0.001305   0.011730   9.005570   3.229810   8.677820  69.270600   2.658490  -0.084458   4.415580  -5.789160  18.792100 -20.524700  -7.755250   4.047830 -44.439600  42.684000  85.469100  27.056500  -0.006547  -0.001853   8.528280  -0.000156  -0.009140  37.961600  -0.218151  -0.279594  31.059900  -0.000755   0.005531  21.736900   0.004719   0.004596  32.286500  -3.526040  -5.560150  48.680700   0.013859  -0.002492  32.429200   0.006389  -0.002589  31.218300  -5.082970  -8.315430  47.389000   0.004651  -0.004925  31.556600  -0.000632  -0.002907  42.570900  -6.616610  -7.158260  64.477900  -0.005057   0.002774  42.942300   0.008937  -0.007034   2.501880   5.633380  -1.401150   0.624295   0.904688  10.154500  -3.947150  -3.122320  -1.574420  -0.000000   0.000000  -0.000000  -0.618816   7.533360  -6.422840   1.125980   0.363570 -13.512300  -0.210397  -3.784510  -0.648100   0.000000   0.000000  -0.000000
  0.726426  89.446800   1.256950  -0.491188  -3.478010   0.884821   0.969127   4.466700  -1.449760   2.061090   8.906680  -2.988970  -1.595350  -0.978718  -0.028798  -2.614930  -1.979890   6.914820  -7.406170  -0.091960  11.186300 -77.952700  12.635300   1.940330  -1.738900  -1.158900 -20.356500  10.124100 -10.038300  -1.254810  38.819000  32.734900 -51.115800 -33.907300   0.006241   0.005193 -11.954800   0.006265   0.003202 -36.444400  -3.650050   4.924750 -29.943400   0.003216   0.001671 -20.959600  -0.007448   0.011239 -34.086800  -3.612550   5.327650 -51.382100   0.000325  -0.005502 -34.220400  -0.008306   0.006976 -28.347600  -4.983810   9.147350 -40.130800  -0.004159   0.009663 -26.727200  -0.011568   0.006769 -32.704100  -7.571620  11.590900 -50.211300   0.000326   0.007898 -33.440700  -0.001262   0.011724   9.001690   3.230240   8.678330  69.254200   2.700220  -0.060135   4.409080  -5.799630  18.793200 -20.478500  -7.733880   4.047860 -44.410500  42.624000  85.396500  27.028700  -0.006552  -0.001816   8.514350  -0.000145  -0.009098  37.956700  -0.219242  -0.281032  31.055900  -0.000808   0.005509  21.736700   0.004719   0.004569  32.287100  -3.524160  -5.557030  48.684300   0.013854  -0.002430  32.429400   0.006389  -0.002516  31.217900  -5.082890  -8.315490  47.383800   0.004608  -0.004881  31.556100  -0.000634  -0.002883  42.561200  -6.616400  -7.158290  64.463300  -0.005035   0.002681  42.932500   0.008996  -0.007007   2.503230   5.636730  -1.401360   0.621185   0.901702  10.140900  -3.953360  -3.102950  -1.591220  -0.000000   0.000000   0.000000  -0.624697   7.534420  -6.411290   1.132790   0.367586 -13.551600  -0.210725  -3.777190  -0.647127   0.000000   0.000000   0.000000
  0.725983  89.446600   1.239270  -0.488600  -3.498680   0.917675   0.964076   4.477780  -1.446340   2.051010   8.929030  -2.981970  -1.595060  -0.986577  -0.028767  -2.614370  -1.995770   6.882530  -7.402620  -0.082143  11.186000 -77.962800  12.657200   1.925020  -1.747910  -1.166060 -20.363000  10.113500 -10.031600  -1.274510  38.832800  32.763100 -51.142900 -33.907300   0.006220   0.005115 -11.954600   0.006216   0.003171 -36.446600  -3.647690   4.924810 -29.943500   0.003173   0.001603 -20.959700  -0.007427   0.011199 -34.089500  -3.612600   5.327110 -51.386100   0.000346  -0.005618 -34.223100  -0.008254   0.006899 -28.348300  -4.983180   9.147460 -40.131000  -0.004194   0.009601 -26.727300  -0.011547   0.006713 -32.696900  -7.571470  11.597700 -50.200600   0.000358   0.007784 -33.433600  -0.001219   0.011716   8.999780   3.230290   8.679850  69.244700   2.751330  -0.038735   4.393660  -5.805290  18.798700 -20.453800  -7.712690   4.047680 -44.389700  42.563000  85.313500  27.002200  -0.006563  -0.001777   8.501100  -0.000127  -0.009051  37.951800  -0.220334  -0.282470  31.051900  -0.000876   0.005482  21.736700   0.004718   0.004536  32.287800  -3.521190  -5.551650  48.688000   0.013848  -0.002354  32.429500   0.006388  -0.002421  31.217100  -5.082830  -8.315530  47.379500   0.004553  -0.004827  31.555300  -0.000636  -0.002855  42.552300  -6.616210  -7.158310  64.449900  -0.005006   0.002573  42.923600   0.009070  -0.006972   2.506410   5.643150  -1.401500   0.617370   0.900181  10.126800  -3.960100  -3.083280  -1.609490   0.000000   0.000000   0.000000  -0.627938   7.540770  -6.404790   1.141720   0.369165 -13.587800  -0.212149  -3.763220  -0.646712  -0.000000   0.000000   0.000000
  0.721802  89.446500   1.224180  -0.485065  -3.524020   0.952416   0.958032   4.488960  -1.439470   2.038660   8.951660  -2.967940  -1.591390  -0.998351  -0.028779  -2.610420  -2.019840   6.819840  -7.395720  -0.063413  11.180800 -77.973500  12.694200   1.897500  -1.752930  -1.173980 -20.366000  10.109700 -10.025100  -1.275140  38.836300  32.774100 -51.149200 -33.907400   0.006206   0.005032 -11.954400   0.006174   0.003128 -36.445300  -3.646820   4.925030 -29.943300   0.003123   0.001578 -20.959700  -0.007404   0.011161 -34.082100  -3.612650   5.326510 -51.375000   0.000372  -0.005755 -34.215700  -0.008194   0.006808 -28.349100  -4.982620   9.147490 -40.114800  -0.004233   0.009533 -26.716500  -0.011525   0.006649 -32.692800  -7.570860  11.597400 -50.194500   0.000371   0.007666 -33.429600  -0.001187   0.011711   9.006240   3.216550   8.682570  69.257000   2.809630  -0.031167   4.359090  -5.808470  18.815500 -20.459300  -7.702150   4.039040 -44.457200  42.569900  85.305100  26.979800  -0.006578  -0.001727   8.489900  -0.000116  -0.009020  37.953300  -0.213370  -0.273557  31.053100  -0.000952   0.005452  21.737500   0.004715   0.004503  32.286400  -3.502490  -5.522390  48.682800   0.013841  -0.002267  32.424400   0.006389  -0.002306  31.216300  -5.082800  -8.315500  47.378500   0.004490  -0.004769  31.554500  -0.000638  -0.002826  42.540600  -6.616150  -7.158290  64.432300  -0.004974   0.002465  42.911900   0.009156  -0.006930   2.511490   5.654620  -1.401490   0.615166   0.901317  10.113600  -3.967680  -3.064640  -1.630870   0.000000   0.000000   0.000000  -0.623308   7.617580  -6.405260   1.149100   0.290915 -13.617600  -0.220737  -3.727110  -0.646157  -0.000000   0.000000   0.000000
